<?xml version="1.0" encoding="UTF-8" standalone="no"?>
<!DOCTYPE svg PUBLIC "-//W3C//DTD SVG 1.1//EN"
 "http://www.w3.org/Graphics/SVG/1.1/DTD/svg11.dtd">
<!-- Generated by graphviz version 2.47.3 (20210619.1520)
 -->
<!-- Title: dependencies Pages: 1 -->
<svg width="160pt" height="174pt"
 viewBox="0.00 0.00 160.00 173.80" xmlns="http://www.w3.org/2000/svg" xmlns:xlink="http://www.w3.org/1999/xlink">
<g id="graph0" class="graph" transform="scale(1 1) rotate(0) translate(4 169.8)">
<title>dependencies</title>
<polygon fill="white" stroke="transparent" points="-4,4 -4,-169.8 156,-169.8 156,4 -4,4"/>
<text text-anchor="middle" x="76" y="-8.2" font-family="sans-serif" font-size="14.00">dependencies</text>
<g id="clust1" class="cluster">
<title>cluster_LoggerModule</title>
<polygon fill="none" stroke="black" stroke-dasharray="1,5" points="8,-32.8 8,-157.8 144,-157.8 144,-32.8 8,-32.8"/>
</g>
<g id="clust4" class="cluster">
<title>cluster_LoggerModule_exports</title>
<polygon fill="none" stroke="black" points="16,-97.8 16,-149.8 136,-149.8 136,-97.8 16,-97.8"/>
</g>
<!-- CustomLogger  -->
<g id="node1" class="node">
<title>CustomLogger </title>
<polygon fill="#fb8072" stroke="black" points="127.99,-141.8 24.01,-141.8 24.01,-105.8 127.99,-105.8 127.99,-141.8"/>
<text text-anchor="middle" x="76" y="-119.6" font-family="Times,serif" font-size="14.00">CustomLogger </text>
</g>
<!-- LoggerModule -->
<g id="node2" class="node">
<title>LoggerModule</title>
<polygon fill="#8dd3c7" stroke="black" points="125.98,-76.8 122.98,-80.8 101.98,-80.8 98.98,-76.8 26.02,-76.8 26.02,-40.8 125.98,-40.8 125.98,-76.8"/>
<text text-anchor="middle" x="76" y="-54.6" font-family="Times,serif" font-size="14.00">LoggerModule</text>
</g>
<!-- LoggerModule&#45;&gt;CustomLogger  -->
<g id="edge1" class="edge">
<title>LoggerModule&#45;&gt;CustomLogger </title>
<path fill="none" stroke="black" stroke-dasharray="5,2" d="M76,-76.91C76,-76.91 76,-95.79 76,-95.79"/>
<polygon fill="black" stroke="black" points="72.5,-95.79 76,-105.79 79.5,-95.79 72.5,-95.79"/>
</g>
</g>
</svg>
