<?xml version="1.0" encoding="UTF-8" standalone="no"?>
<!DOCTYPE svg PUBLIC "-//W3C//DTD SVG 1.1//EN"
 "http://www.w3.org/Graphics/SVG/1.1/DTD/svg11.dtd">
<!-- Generated by graphviz version 2.47.3 (20210619.1520)
 -->
<!-- Title: dependencies Pages: 1 -->
<svg width="260pt" height="174pt"
 viewBox="0.00 0.00 260.00 173.80" xmlns="http://www.w3.org/2000/svg" xmlns:xlink="http://www.w3.org/1999/xlink">
<g id="graph0" class="graph" transform="scale(1 1) rotate(0) translate(4 169.8)">
<title>dependencies</title>
<polygon fill="white" stroke="transparent" points="-4,4 -4,-169.8 256,-169.8 256,4 -4,4"/>
<text text-anchor="middle" x="126" y="-8.2" font-family="sans-serif" font-size="14.00">dependencies</text>
<g id="clust1" class="cluster">
<title>cluster_AppModule</title>
<polygon fill="none" stroke="black" stroke-dasharray="1,5" points="8,-32.8 8,-157.8 244,-157.8 244,-32.8 8,-32.8"/>
</g>
<g id="clust3" class="cluster">
<title>cluster_AppModule_imports</title>
<polygon fill="none" stroke="black" points="16,-40.8 16,-92.8 236,-92.8 236,-40.8 16,-40.8"/>
</g>
<!-- CustomLogger -->
<g id="node1" class="node">
<title>CustomLogger</title>
<polygon fill="#8dd3c7" stroke="black" points="227.99,-84.8 224.99,-88.8 203.99,-88.8 200.99,-84.8 128.01,-84.8 128.01,-48.8 227.99,-48.8 227.99,-84.8"/>
<text text-anchor="middle" x="178" y="-62.6" font-family="Times,serif" font-size="14.00">CustomLogger</text>
</g>
<!-- AppModule -->
<g id="node3" class="node">
<title>AppModule</title>
<polygon fill="#8dd3c7" stroke="black" points="163.66,-149.8 160.66,-153.8 139.66,-153.8 136.66,-149.8 80.34,-149.8 80.34,-113.8 163.66,-113.8 163.66,-149.8"/>
<text text-anchor="middle" x="122" y="-127.6" font-family="Times,serif" font-size="14.00">AppModule</text>
</g>
<!-- CustomLogger&#45;&gt;AppModule -->
<g id="edge1" class="edge">
<title>CustomLogger&#45;&gt;AppModule</title>
<path fill="none" stroke="black" d="M145.92,-84.91C145.92,-84.91 145.92,-103.79 145.92,-103.79"/>
<polygon fill="black" stroke="black" points="142.42,-103.79 145.92,-113.79 149.42,-103.79 142.42,-103.79"/>
</g>
<!-- UserModule -->
<g id="node2" class="node">
<title>UserModule</title>
<polygon fill="#8dd3c7" stroke="black" points="109.98,-84.8 106.98,-88.8 85.98,-88.8 82.98,-84.8 24.02,-84.8 24.02,-48.8 109.98,-48.8 109.98,-84.8"/>
<text text-anchor="middle" x="67" y="-62.6" font-family="Times,serif" font-size="14.00">UserModule</text>
</g>
<!-- UserModule&#45;&gt;AppModule -->
<g id="edge2" class="edge">
<title>UserModule&#45;&gt;AppModule</title>
<path fill="none" stroke="black" d="M95.08,-84.91C95.08,-84.91 95.08,-103.79 95.08,-103.79"/>
<polygon fill="black" stroke="black" points="91.58,-103.79 95.08,-113.79 98.58,-103.79 91.58,-103.79"/>
</g>
</g>
</svg>
