<?xml version="1.0" encoding="UTF-8" standalone="no"?>
<!DOCTYPE svg PUBLIC "-//W3C//DTD SVG 1.1//EN"
 "http://www.w3.org/Graphics/SVG/1.1/DTD/svg11.dtd">
<!-- Generated by graphviz version 2.47.3 (20210619.1520)
 -->
<!-- Title: dependencies Pages: 1 -->
<svg width="419pt" height="250pt"
 viewBox="0.00 0.00 419.00 249.80" xmlns="http://www.w3.org/2000/svg" xmlns:xlink="http://www.w3.org/1999/xlink">
<g id="graph0" class="graph" transform="scale(1 1) rotate(0) translate(4 245.8)">
<title>dependencies</title>
<polygon fill="white" stroke="transparent" points="-4,4 -4,-245.8 415,-245.8 415,4 -4,4"/>
<text text-anchor="middle" x="205.5" y="-8.2" font-family="sans-serif" font-size="14.00">dependencies</text>
<g id="clust1" class="cluster">
<title>cluster_AppModule</title>
<polygon fill="none" stroke="black" stroke-dasharray="1,5" points="23,-108.8 23,-233.8 259,-233.8 259,-108.8 23,-108.8"/>
</g>
<g id="clust3" class="cluster">
<title>cluster_AppModule_imports</title>
<polygon fill="none" stroke="black" points="31,-116.8 31,-168.8 251,-168.8 251,-116.8 31,-116.8"/>
</g>
<g id="clust7" class="cluster">
<title>cluster_LoggerModule</title>
<polygon fill="none" stroke="black" stroke-dasharray="1,5" points="267,-40.8 267,-176.8 403,-176.8 403,-40.8 267,-40.8"/>
</g>
<g id="clust10" class="cluster">
<title>cluster_LoggerModule_exports</title>
<polygon fill="none" stroke="black" points="275,-116.8 275,-168.8 395,-168.8 395,-116.8 275,-116.8"/>
</g>
<g id="clust13" class="cluster">
<title>cluster_UserModule</title>
<polygon fill="none" stroke="black" stroke-dasharray="1,5" points="8,-32.8 8,-100.8 156,-100.8 156,-32.8 8,-32.8"/>
</g>
<g id="clust18" class="cluster">
<title>cluster_UserModule_providers</title>
<polygon fill="none" stroke="black" points="16,-40.8 16,-92.8 148,-92.8 148,-40.8 16,-40.8"/>
</g>
<!-- CustomLogger -->
<g id="node1" class="node">
<title>CustomLogger</title>
<polygon fill="#8dd3c7" stroke="black" points="242.99,-160.8 239.99,-164.8 218.99,-164.8 215.99,-160.8 143.01,-160.8 143.01,-124.8 242.99,-124.8 242.99,-160.8"/>
<text text-anchor="middle" x="193" y="-138.6" font-family="Times,serif" font-size="14.00">CustomLogger</text>
</g>
<!-- AppModule -->
<g id="node3" class="node">
<title>AppModule</title>
<polygon fill="#8dd3c7" stroke="black" points="178.66,-225.8 175.66,-229.8 154.66,-229.8 151.66,-225.8 95.34,-225.8 95.34,-189.8 178.66,-189.8 178.66,-225.8"/>
<text text-anchor="middle" x="137" y="-203.6" font-family="Times,serif" font-size="14.00">AppModule</text>
</g>
<!-- CustomLogger&#45;&gt;AppModule -->
<g id="edge1" class="edge">
<title>CustomLogger&#45;&gt;AppModule</title>
<path fill="none" stroke="black" d="M160.92,-160.91C160.92,-160.91 160.92,-179.79 160.92,-179.79"/>
<polygon fill="black" stroke="black" points="157.42,-179.79 160.92,-189.79 164.42,-179.79 157.42,-179.79"/>
</g>
<!-- UserModule -->
<g id="node2" class="node">
<title>UserModule</title>
<polygon fill="#8dd3c7" stroke="black" points="124.98,-160.8 121.98,-164.8 100.98,-164.8 97.98,-160.8 39.02,-160.8 39.02,-124.8 124.98,-124.8 124.98,-160.8"/>
<text text-anchor="middle" x="82" y="-138.6" font-family="Times,serif" font-size="14.00">UserModule</text>
</g>
<!-- UserModule&#45;&gt;AppModule -->
<g id="edge2" class="edge">
<title>UserModule&#45;&gt;AppModule</title>
<path fill="none" stroke="black" d="M110.08,-160.91C110.08,-160.91 110.08,-179.79 110.08,-179.79"/>
<polygon fill="black" stroke="black" points="106.58,-179.79 110.08,-189.79 113.58,-179.79 106.58,-179.79"/>
</g>
<!-- CustomLogger  -->
<g id="node4" class="node">
<title>CustomLogger </title>
<polygon fill="#fb8072" stroke="black" points="386.99,-160.8 283.01,-160.8 283.01,-124.8 386.99,-124.8 386.99,-160.8"/>
<text text-anchor="middle" x="335" y="-138.6" font-family="Times,serif" font-size="14.00">CustomLogger </text>
</g>
<!-- LoggerModule -->
<g id="node5" class="node">
<title>LoggerModule</title>
<polygon fill="#8dd3c7" stroke="black" points="384.98,-84.8 381.98,-88.8 360.98,-88.8 357.98,-84.8 285.02,-84.8 285.02,-48.8 384.98,-48.8 384.98,-84.8"/>
<text text-anchor="middle" x="335" y="-62.6" font-family="Times,serif" font-size="14.00">LoggerModule</text>
</g>
<!-- LoggerModule&#45;&gt;CustomLogger  -->
<g id="edge3" class="edge">
<title>LoggerModule&#45;&gt;CustomLogger </title>
<path fill="none" stroke="black" stroke-dasharray="5,2" d="M335,-84.81C335,-84.81 335,-114.65 335,-114.65"/>
<polygon fill="black" stroke="black" points="331.5,-114.65 335,-124.65 338.5,-114.65 331.5,-114.65"/>
</g>
<!-- UserService -->
<g id="node6" class="node">
<title>UserService</title>
<ellipse fill="#fdb462" stroke="black" cx="82" cy="-66.8" rx="58.44" ry="18"/>
<text text-anchor="middle" x="82" y="-62.6" font-family="Times,serif" font-size="14.00">UserService</text>
</g>
<!-- UserService&#45;&gt;UserModule -->
<g id="edge4" class="edge">
<title>UserService&#45;&gt;UserModule</title>
<path fill="none" stroke="black" d="M82,-84.81C82,-84.81 82,-114.65 82,-114.65"/>
<polygon fill="black" stroke="black" points="78.5,-114.65 82,-124.65 85.5,-114.65 78.5,-114.65"/>
</g>
</g>
</svg>
